<svg width="129" height="34" viewBox="0 0 129 34" fill="none" xmlns="http://www.w3.org/2000/svg">
<path d="M33.9035 15.1111H26.264C26.3626 15.5949 26.4235 16.0912 26.4444 16.5991C26.4507 16.7314 26.4539 16.8657 26.4539 17V17.0042C26.4539 17.1396 26.4507 17.2749 26.4444 17.4093C26.4245 17.914 26.3636 18.4083 26.266 18.8889H30.0984C30.0061 19.5343 29.8675 20.166 29.6849 20.7778C29.4919 21.4294 29.2494 22.0612 28.9619 22.6667C28.772 23.0675 28.5621 23.4569 28.3333 23.8346C28.1854 24.0802 28.029 24.3205 27.8653 24.5556C27.4403 25.1663 26.9649 25.7393 26.4444 26.2681L26.2681 26.4444C25.7393 26.9649 25.1663 27.4403 24.5556 27.8653C24.3205 28.029 24.0802 28.1854 23.8346 28.3333C23.4569 28.5621 23.0675 28.772 22.6667 28.9619C22.0612 29.2494 21.4294 29.4919 20.7778 29.6849C20.166 29.8675 19.5343 30.0061 18.8889 30.0984V22.355C19.593 22.1073 20.2321 21.7254 20.7778 21.2385C20.9404 21.0936 21.0936 20.9404 21.2385 20.7778C21.7254 20.2321 22.1073 19.593 22.355 18.8889C22.5292 18.3967 22.6362 17.8731 22.6667 17.3285V16.6799C22.6362 16.1322 22.5271 15.6054 22.3519 15.1111C22.1031 14.407 21.7191 13.7669 21.2301 13.2222C21.0884 13.0627 20.9373 12.9116 20.7778 12.771C20.2321 12.2841 19.593 11.9021 18.8889 11.6544V3.91C19.5343 4.00235 20.166 4.14086 20.7778 4.32346C21.4294 4.51654 22.0612 4.75895 22.6667 5.04648C23.0623 5.23432 23.4474 5.44105 23.821 5.66667C24.0718 5.81673 24.3163 5.97623 24.5556 6.14309C25.1631 6.56599 25.733 7.03821 26.2598 7.55556H31.1436C30.855 7.12426 30.5475 6.70765 30.2222 6.30574C30.0459 6.08852 29.8644 5.87549 29.6765 5.66667C29.2547 5.19444 28.8066 4.74636 28.3333 4.32451C28.1245 4.13667 27.9104 3.95407 27.6922 3.77778C27.2913 3.45352 26.8747 3.1471 26.4444 2.85957C25.9166 2.50593 25.3678 2.18167 24.8001 1.88889L24.5556 1.76401C23.9459 1.46179 23.3152 1.1942 22.6667 0.965432C22.0528 0.749259 21.4221 0.566667 20.7778 0.420802C20.1597 0.280185 19.5301 0.174198 18.8889 0.103889C18.2698 0.0346296 17.6412 0 17.0042 0H17C16.3609 0 15.7313 0.035679 15.1111 0.104938C14.4699 0.175247 13.8393 0.282284 13.2222 0.422901C12.5779 0.568765 11.9472 0.751358 11.3333 0.96858C10.6848 1.1984 10.0541 1.46599 9.44444 1.76821L9.20833 1.88889C8.63747 2.18377 8.08654 2.50907 7.55556 2.86481C7.12846 3.15025 6.715 3.45562 6.31623 3.77778C6.09481 3.95722 5.87864 4.14086 5.66667 4.33185C5.19759 4.7516 4.7516 5.19759 4.33185 5.66667C4.14086 5.87864 3.95722 6.09481 3.77778 6.31623C3.45562 6.715 3.15025 7.12846 2.86481 7.55556C2.50907 8.08654 2.18377 8.63747 1.88889 9.20833L1.76821 9.44444C1.46599 10.0541 1.1984 10.6848 0.96858 11.3333C0.751358 11.9472 0.568765 12.5779 0.422901 13.2222C0.282284 13.8393 0.175247 14.4699 0.104938 15.1111C0.035679 15.7313 0 16.3609 0 17V17.0042C0 17.6412 0.0346296 18.2698 0.103889 18.8889C0.174198 19.5301 0.280185 20.1597 0.420802 20.7778C0.566667 21.4221 0.749259 22.0528 0.965432 22.6667C1.1942 23.3152 1.46179 23.9459 1.76401 24.5556L1.88889 24.8001C2.18167 25.3678 2.50593 25.9166 2.85957 26.4444C3.1471 26.8747 3.45352 27.2913 3.77778 27.6922C3.95407 27.9104 4.13667 28.1245 4.32451 28.3333C4.74636 28.8066 5.19444 29.2547 5.66667 29.6765C5.87549 29.8644 6.08852 30.0459 6.30574 30.2222C6.70765 30.5475 7.12426 30.855 7.55556 31.1436C8.0813 31.4951 8.62698 31.8183 9.19154 32.1111L9.44444 32.2402C10.0541 32.5424 10.6848 32.81 11.3333 33.0398C11.9472 33.257 12.5779 33.4396 13.2222 33.5855C13.8393 33.7261 14.4699 33.8331 15.1111 33.9035C15.5592 33.9538 16.0136 33.9864 16.4722 34H17.5362C17.9917 33.9864 18.4429 33.9538 18.8889 33.9045C19.5301 33.8342 20.1597 33.7282 20.7778 33.5876C21.4221 33.4417 22.0528 33.2591 22.6667 33.043C23.3152 32.8142 23.9459 32.5466 24.5556 32.2444L24.8169 32.1111C25.3783 31.8204 25.9219 31.4993 26.4444 31.1488C26.8789 30.8592 27.2986 30.5496 27.7027 30.2222C27.9167 30.048 28.1277 29.8686 28.3333 29.6839C28.8087 29.2599 29.2599 28.8087 29.6839 28.3333C29.8686 28.1277 30.048 27.9167 30.2222 27.7027C30.5496 27.2986 30.8592 26.8789 31.1488 26.4444C31.4993 25.9219 31.8204 25.3783 32.1111 24.8169L32.2444 24.5556C32.5466 23.9459 32.8142 23.3152 33.043 22.6667C33.2591 22.0528 33.4417 21.4221 33.5876 20.7778C33.7282 20.1597 33.8342 19.5301 33.9045 18.8889C33.9538 18.4429 33.9864 17.9917 34 17.5362V16.4722C33.9864 16.0136 33.9538 15.5592 33.9035 15.1111ZM15.1111 30.0973C14.4657 30.005 13.8351 29.8654 13.2222 29.6828C12.5706 29.4887 11.9388 29.2452 11.3333 28.9577C10.9356 28.7688 10.5484 28.56 10.1738 28.3333C9.92506 28.1833 9.6816 28.0259 9.44444 27.859C8.83685 27.4361 8.26704 26.9628 7.74025 26.4444L7.55556 26.2598C7.03821 25.733 6.56599 25.1631 6.14309 24.5556C5.97623 24.3163 5.81673 24.0718 5.66667 23.821C5.44105 23.4474 5.23432 23.0623 5.04648 22.6667C4.75895 22.0612 4.51654 21.4294 4.32346 20.7778C4.14086 20.166 4.00235 19.5343 3.91 18.8889L3.77778 17.1752C3.77673 17.1186 3.77673 16.8888 3.77778 16.8331L3.91105 15.1111C4.0034 14.4657 4.14296 13.8351 4.32556 13.2222C4.51969 12.5706 4.76315 11.9388 5.05068 11.3333C5.23747 10.9398 5.44315 10.5578 5.66667 10.1874C5.81883 9.93451 5.97938 9.68685 6.14938 9.44444C6.57018 8.84 7.04031 8.27333 7.55556 7.74864L7.74864 7.55556C8.27333 7.04031 8.84 6.57018 9.44444 6.14938C9.68685 5.97938 9.93451 5.81883 10.1874 5.66667C10.5578 5.44315 10.9398 5.23747 11.3333 5.05068C11.9388 4.76315 12.5706 4.51969 13.2222 4.32556C13.8351 4.14296 14.4657 4.0034 15.1111 3.91105V11.6576C14.407 11.9063 13.7669 12.2904 13.2222 12.7794C13.0659 12.9179 12.9179 13.0659 12.7794 13.2222C12.2904 13.7669 11.9063 14.407 11.6576 15.1111C11.4477 15.7019 11.3333 16.3378 11.3333 17V17.0042C11.3333 17.6653 11.4467 18.2991 11.6544 18.8889C11.9021 19.593 12.2841 20.2321 12.771 20.7778C12.9116 20.9373 13.0627 21.0884 13.2222 21.2301C13.7669 21.7191 14.407 22.1031 15.1111 22.3519V30.0973ZM17 18.8889C15.9569 18.8889 15.1111 18.0431 15.1111 17C15.1111 15.9569 15.9569 15.1111 17 15.1111C18.0431 15.1111 18.8889 15.9569 18.8889 17C18.8889 18.0431 18.0431 18.8889 17 18.8889Z" fill="white"/>
<path d="M51.7 26.35C50.5 26.35 49.4083 26.0833 48.425 25.55C47.4583 25 46.6833 24.2083 46.1 23.175C45.5333 22.125 45.25 20.85 45.25 19.35V15.15C45.25 12.9 45.8833 11.175 47.15 9.975C48.4167 8.75833 50.1333 8.15 52.3 8.15C54.45 8.15 56.1083 8.725 57.275 9.875C58.4583 11.0083 59.05 12.55 59.05 14.5V14.6H55.8V14.4C55.8 13.7833 55.6667 13.225 55.4 12.725C55.15 12.225 54.7667 11.8333 54.25 11.55C53.7333 11.25 53.0833 11.1 52.3 11.1C51.1333 11.1 50.2167 11.4583 49.55 12.175C48.8833 12.8917 48.55 13.8667 48.55 15.1V19.4C48.55 20.6167 48.8833 21.6 49.55 22.35C50.2167 23.0833 51.15 23.45 52.35 23.45C53.55 23.45 54.425 23.1333 54.975 22.5C55.525 21.8667 55.8 21.0667 55.8 20.1V19.85H51.65V17.05H59.05V26H56V24.325H55.55C55.4333 24.6083 55.2417 24.9083 54.975 25.225C54.725 25.5417 54.3417 25.8083 53.825 26.025C53.3083 26.2417 52.6 26.35 51.7 26.35ZM69.0027 26.35C66.8027 26.35 65.0527 25.75 63.7527 24.55C62.4527 23.3333 61.8027 21.6 61.8027 19.35V15.15C61.8027 12.9 62.4527 11.175 63.7527 9.975C65.0527 8.75833 66.8027 8.15 69.0027 8.15C71.2027 8.15 72.9527 8.75833 74.2527 9.975C75.5527 11.175 76.2027 12.9 76.2027 15.15V19.35C76.2027 21.6 75.5527 23.3333 74.2527 24.55C72.9527 25.75 71.2027 26.35 69.0027 26.35ZM69.0027 23.4C70.2361 23.4 71.1944 23.0417 71.8777 22.325C72.5611 21.6083 72.9027 20.65 72.9027 19.45V15.05C72.9027 13.85 72.5611 12.8917 71.8777 12.175C71.1944 11.4583 70.2361 11.1 69.0027 11.1C67.7861 11.1 66.8277 11.4583 66.1277 12.175C65.4444 12.8917 65.1027 13.85 65.1027 15.05V19.45C65.1027 20.65 65.4444 21.6083 66.1277 22.325C66.8277 23.0417 67.7861 23.4 69.0027 23.4ZM79.0973 26V8.5H82.3973V23H90.3973V26H79.0973ZM94.1393 26L89.6893 8.5H93.0893L96.7893 23.875H97.1393L100.839 8.5H104.239L99.7893 26H94.1393ZM106.343 26V8.5H109.643V26H106.343ZM119.735 26.35C117.535 26.35 115.785 25.75 114.485 24.55C113.185 23.3333 112.535 21.6 112.535 19.35V15.15C112.535 12.9 113.185 11.175 114.485 9.975C115.785 8.75833 117.535 8.15 119.735 8.15C121.935 8.15 123.685 8.75833 124.985 9.975C126.285 11.175 126.935 12.9 126.935 15.15V19.35C126.935 21.6 126.285 23.3333 124.985 24.55C123.685 25.75 121.935 26.35 119.735 26.35ZM119.735 23.4C120.968 23.4 121.927 23.0417 122.61 22.325C123.293 21.6083 123.635 20.65 123.635 19.45V15.05C123.635 13.85 123.293 12.8917 122.61 12.175C121.927 11.4583 120.968 11.1 119.735 11.1C118.518 11.1 117.56 11.4583 116.86 12.175C116.177 12.8917 115.835 13.85 115.835 15.05V19.45C115.835 20.65 116.177 21.6083 116.86 22.325C117.56 23.0417 118.518 23.4 119.735 23.4Z" fill="white"/>
</svg>
